<?xml version="1.0" encoding="utf-8"?>
<!-- Generator: Adobe Illustrator 25.4.1, SVG Export Plug-In . SVG Version: 6.00 Build 0)  -->
<svg version="1.1" id="Calque_1" xmlns="http://www.w3.org/2000/svg" xmlns:xlink="http://www.w3.org/1999/xlink" x="0px" y="0px"
	 viewBox="0 0 1190.55 1190.55" style="enable-background:new 0 0 1190.55 1190.55;" xml:space="preserve">
<style type="text/css">
	.st0{fill:#FFFFFF;}
</style>
<g>
	<circle class="st0" cx="595.28" cy="595.28" r="118.99"/>
	<path class="st0" d="M873.54,384.75c-6.48-16.66-14.21-28.55-26.7-41.04c-12.49-12.49-24.38-20.23-41.04-26.7
		c-12.58-4.89-31.48-10.7-66.28-12.29c-37.64-1.72-48.93-2.08-144.24-2.08c-95.31,0-106.6,0.36-144.24,2.08
		c-34.8,1.59-53.7,7.4-66.28,12.29c-16.66,6.48-28.55,14.21-41.04,26.7c-12.49,12.49-20.23,24.38-26.7,41.04
		c-4.89,12.58-10.7,31.48-12.29,66.28c-1.72,37.64-2.08,48.93-2.08,144.24c0,95.31,0.36,106.6,2.08,144.24
		c1.59,34.8,7.4,53.7,12.29,66.28c6.48,16.66,14.21,28.55,26.7,41.04c12.49,12.49,24.38,20.23,41.04,26.7
		c12.58,4.89,31.48,10.7,66.28,12.29c37.63,1.72,48.92,2.08,144.24,2.08s106.61-0.36,144.24-2.08c34.8-1.59,53.7-7.4,66.28-12.29
		c16.66-6.48,28.55-14.21,41.04-26.7c12.49-12.49,20.23-24.38,26.7-41.04c4.89-12.58,10.7-31.48,12.29-66.28
		c1.72-37.64,2.08-48.93,2.08-144.24c0-95.31-0.36-106.6-2.08-144.24C884.25,416.23,878.43,397.33,873.54,384.75z M595.28,778.58
		c-101.23,0-183.3-82.07-183.3-183.3c0-101.23,82.07-183.3,183.3-183.3s183.3,82.07,183.3,183.3
		C778.58,696.51,696.51,778.58,595.28,778.58z M785.82,447.57c-23.66,0-42.83-19.18-42.83-42.83s19.18-42.83,42.83-42.83
		s42.83,19.18,42.83,42.83S809.48,447.57,785.82,447.57z"/>
	<path class="st0" d="M595.28,28.35c-313.11,0-566.93,253.82-566.93,566.93c0,313.11,253.82,566.93,566.93,566.93
		s566.93-253.82,566.93-566.93C1162.2,282.17,908.38,28.35,595.28,28.35z M950.08,742.45c-1.73,37.99-7.77,63.94-16.59,86.65
		c-9.12,23.47-21.33,43.38-41.17,63.22c-19.84,19.84-39.75,32.05-63.22,41.17c-22.71,8.82-48.65,14.86-86.65,16.59
		c-38.07,1.74-50.23,2.15-147.17,2.15s-109.1-0.41-147.17-2.15c-37.99-1.73-63.94-7.77-86.65-16.59
		c-23.47-9.12-43.38-21.33-63.22-41.17c-19.84-19.85-32.05-39.75-41.17-63.22c-8.82-22.71-14.86-48.65-16.59-86.65
		c-1.74-38.07-2.15-50.23-2.15-147.17c0-96.94,0.41-109.1,2.15-147.17c1.73-37.99,7.77-63.94,16.59-86.65
		c9.12-23.47,21.33-43.38,41.17-63.22c19.85-19.84,39.75-32.05,63.22-41.17c22.71-8.82,48.65-14.86,86.65-16.59
		c38.07-1.74,50.23-2.15,147.17-2.15s109.1,0.41,147.17,2.15c37.99,1.73,63.94,7.77,86.65,16.59c23.47,9.12,43.38,21.33,63.22,41.17
		c19.84,19.85,32.05,39.75,41.17,63.22c8.82,22.71,14.86,48.65,16.59,86.65c1.74,38.07,2.15,50.23,2.15,147.17
		S951.82,704.37,950.08,742.45z"/>
</g>
</svg>
