<?xml version="1.0" encoding="utf-8"?>
<!-- Generator: Adobe Illustrator 25.4.1, SVG Export Plug-In . SVG Version: 6.00 Build 0)  -->
<svg version="1.1" id="Calque_1" xmlns="http://www.w3.org/2000/svg" xmlns:xlink="http://www.w3.org/1999/xlink" x="0px" y="0px"
	 viewBox="0 0 1190.55 1190.55" style="enable-background:new 0 0 1190.55 1190.55;" xml:space="preserve">
<style type="text/css">
	.st0{fill:#FFFFFF;}
</style>
<g>
	<path class="st0" d="M591.36,357.9c0-90.83-70.87-164.5-158.3-164.5s-158.27,73.68-158.27,164.5
		c0,90.87,70.85,164.55,158.27,164.55S591.36,448.77,591.36,357.9z"/>
	<path class="st0" d="M1184.34,592.39c-0.36-78.49-15.9-154.66-46.27-226.42c-29.68-70.15-72.14-133.15-126.23-187.23
		C957.75,124.66,894.76,82.19,824.6,52.51C751.93,21.78,674.78,6.19,595.29,6.19S438.62,21.78,365.97,52.51
		c-70.16,29.68-133.15,72.14-187.23,126.23c-54.08,54.08-96.55,117.08-126.23,187.23C21.78,438.62,6.19,515.77,6.19,595.26
		c0,79.52,15.59,156.67,46.32,229.32c29.68,70.15,72.14,133.15,126.23,187.23c54.08,54.08,117.08,96.55,187.23,126.23
		c23.54,9.96,47.54,18.32,71.98,25.08c6.63,1.84,13.29,3.54,19.98,5.15c44.69,10.71,90.61,16.1,137.36,16.1
		c79.5,0,156.64-15.59,229.32-46.32c70.16-29.68,133.15-72.14,187.23-126.23c54.08-54.08,96.55-117.08,126.23-187.23
		c5.92-14.01,11.28-28.17,16.07-42.49c1.08-3.19,2.11-6.37,3.11-9.58c1.01-3.19,1.99-6.37,2.92-9.58c0.57-1.89,1.13-3.76,1.68-5.65
		c0-0.05,0.02-0.07,0.02-0.12c8.05-28.14,13.92-56.84,17.65-85.94c3.23-25.03,4.84-50.37,4.84-75.95
		C1184.36,594.31,1184.36,593.35,1184.34,592.39z M867.21,759.86c1.91-5.34,39.1-100.7,44.55-132.03
		c10.3-59.16,13.66-124.11,8.87-223.5l33.68-0.12c0.01,5.26,8.16,124.41,3.26,196.81c-5.74,84.74-35.24,145.52-43.66,160.08
		C897.94,760.74,882.31,760.33,867.21,759.86z M666.39,746.14c31.23-24.39,62.2-54.12,88.5-96.47
		c40.48-65.2,60.82-145.47,62.17-244.98l37.75-0.13c-0.12,1.03-0.29,2.11-0.37,3.32c-3.13,207.8-77.44,308.66-130.89,343.73
		C703.54,750,684.42,748.17,666.39,746.14z M1023.29,762.51c0.02,0,0.04,0.01,0.06,0.01
		C1023.33,762.52,1023.31,762.52,1023.29,762.51L1023.29,762.51z M1029.64,762.59c46.01-66.12,37.01-290.26-14.3-358.59l30.07-0.1
		c60.11,88.77,64.85,277.33,12.68,358.84C1049.53,762.7,1038.35,762.65,1029.64,762.59z M738.42,404.97l14.68-0.06l0.56,0
		c3.38,17.9,1.91,77.85-29.32,143.08c-30.1,62.88-74.94,148.27-208.28,166.88c-20.95-1.95-48.78-17.22-49.89-27.13
		c-0.05-0.02-0.05-0.05-0.07-0.07c6.47-7.98,15.74-13.22,26.2-14.68c69.03-9.6,131.54-42.06,176.02-91.35
		C712.22,533.01,736.34,472.1,738.42,404.97z M58.89,595.26c0-296.24,240.17-536.38,536.4-536.38
		c188.41,0,354.14,97.15,449.81,244.09H811.86c-47,0-86.48,35.15-91.84,81.76c-0.04,0.37-0.06,0.74-0.1,1.12l-0.52,0v9.52
		c0,0.01,0,0.03,0,0.04v0.11c-0.05,133.39-94.5,239.68-229.72,258.5c-13.51,1.87-25.68,8.07-34.83,17.53
		c-3.4,3.45-6.37,7.35-8.86,11.62l-0.02,0.02c-0.07,0.14-0.17,0.29-0.24,0.43l-2.75,4.69l0.22,0.31
		c-3.45,7.62-5.25,15.88-5.25,24.22v395.35C218.48,1040.98,58.89,836.75,58.89,595.26z"/>
</g>
</svg>
