<?xml version="1.0" encoding="utf-8"?>
<!-- Generator: Adobe Illustrator 25.4.1, SVG Export Plug-In . SVG Version: 6.00 Build 0)  -->
<svg version="1.1" id="Calque_1" xmlns="http://www.w3.org/2000/svg" xmlns:xlink="http://www.w3.org/1999/xlink" x="0px" y="0px"
	 viewBox="0 0 1190.55 1190.55" style="enable-background:new 0 0 1190.55 1190.55;" xml:space="preserve">
<style type="text/css">
	.st0{fill:#FFFFFF;}
</style>
<g>
	<polygon class="st0" points="519.69,708.66 716.07,595.28 519.69,481.89 	"/>
	<path class="st0" d="M595.28,28.35c-313.11,0-566.93,253.82-566.93,566.93s253.82,566.93,566.93,566.93
		c313.11,0,566.93-253.82,566.93-566.93S908.38,28.35,595.28,28.35z M957.43,777.22c-8.69,32.52-34.31,58.14-66.83,66.83
		c-58.95,15.79-295.33,15.79-295.33,15.79s-236.38,0-295.33-15.79c-32.52-8.69-58.14-34.31-66.83-66.83
		c-15.8-58.95-15.8-181.94-15.8-181.94s0-122.99,15.8-181.94c8.69-32.52,34.31-58.14,66.83-66.83
		c58.95-15.8,295.33-15.8,295.33-15.8s236.38,0,295.33,15.8c32.52,8.69,58.14,34.31,66.83,66.83c15.8,58.95,15.8,181.94,15.8,181.94
		S973.23,718.27,957.43,777.22z"/>
</g>
</svg>
